name D:\school\WTK\thesis\model\3dpredictsim\Results\MidTarsalJoint\Fal_s1_bCst_PF_Ker1987_ls137_MT_nl_Ker1987_d01_Tmtp_ig24_kmtp10.mot
datacolumns 128
datarows 4
range 1.78289349 1.81855136
endheader
time	pelvis_tilt	pelvis_list	pelvis_rotation	pelvis_tx	pelvis_ty	pelvis_tz	hip_flexion_l	hip_adduction_l	hip_rotation_l	hip_flexion_r	hip_adduction_r	hip_rotation_r	knee_angle_l	knee_angle_r	ankle_angle_l	ankle_angle_r	subtalar_angle_l	subtalar_angle_r	tmt_angle_l	tmt_angle_r	mtp_angle_l	mtp_angle_r	lumbar_extension	lumbar_bending	lumbar_rotation	arm_flex_l	arm_add_l	arm_rot_l	arm_flex_r	arm_add_r	arm_rot_r	elbow_flex_l	elbow_flex_r	pro_sup_l	pro_sup_r	glut_med1_l/activation	glut_med2_l/activation	glut_med3_l/activation	glut_min1_l/activation	glut_min2_l/activation	glut_min3_l/activation	semimem_l/activation	semiten_l/activation	bifemlh_l/activation	bifemsh_l/activation	sar_l/activation	add_long_l/activation	add_brev_l/activation	add_mag1_l/activation	add_mag2_l/activation	add_mag3_l/activation	tfl_l/activation	pect_l/activation	grac_l/activation	glut_max1_l/activation	glut_max2_l/activation	glut_max3_l/activation	iliacus_l/activation	psoas_l/activation	quad_fem_l/activation	gem_l/activation	peri_l/activation	rect_fem_l/activation	vas_med_l/activation	vas_int_l/activation	vas_lat_l/activation	med_gas_l/activation	lat_gas_l/activation	soleus_l/activation	tib_post_l/activation	flex_dig_l/activation	flex_hal_l/activation	tib_ant_l/activation	per_brev_l/activation	per_long_l/activation	per_tert_l/activation	ext_dig_l/activation	ext_hal_l/activation	ercspn_l/activation	intobl_l/activation	extobl_l/activation	glut_med1_r/activation	glut_med2_r/activation	glut_med3_r/activation	glut_min1_r/activation	glut_min2_r/activation	glut_min3_r/activation	semimem_r/activation	semiten_r/activation	bifemlh_r/activation	bifemsh_r/activation	sar_r/activation	add_long_r/activation	add_brev_r/activation	add_mag1_r/activation	add_mag2_r/activation	add_mag3_r/activation	tfl_r/activation	pect_r/activation	grac_r/activation	glut_max1_r/activation	glut_max2_r/activation	glut_max3_r/activation	iliacus_r/activation	psoas_r/activation	quad_fem_r/activation	gem_r/activation	peri_r/activation	rect_fem_r/activation	vas_med_r/activation	vas_int_r/activation	vas_lat_r/activation	med_gas_r/activation	lat_gas_r/activation	soleus_r/activation	tib_post_r/activation	flex_dig_r/activation	flex_hal_r/activation	tib_ant_r/activation	per_brev_r/activation	per_long_r/activation	per_tert_r/activation	ext_dig_r/activation	ext_hal_r/activation	ercspn_r/activation	intobl_r/activation	extobl_r/activation	
          1.78289349	         -2.92972715	          2.42457114	         -6.41329629	          2.22861686	          0.91346197	          0.00266330	         30.28462886	          3.42866843	         -2.58247124	        -15.89055604	         -1.53974554	          7.50273750	        -11.42782907	        -11.49424618	          5.11212423	         -9.59697502	         -4.41510567	          9.25441771	         -0.15089731	         15.45921435	          4.88189785	         14.10875968	         -1.31605222	         -0.52101262	          2.35962845	         -6.66191390	        -13.53996737	          8.34388937	          4.91089620	        -13.46323776	         16.96843794	         15.30801236	         37.05437316	         86.51662706	         86.51662706	          0.06919663	          0.05000073	          0.05000016	          0.05990551	          0.05988078	          0.05000068	          0.17535824	          0.05000068	          0.06063825	          0.05000072	          0.05096465	          0.12343388	          0.23249785	          0.23488963	          0.15609788	          0.06984414	          0.05000063	          0.07177730	          0.10617506	          0.05000055	          0.05000046	          0.11221587	          0.07177203	          0.07177158	          0.58504965	          0.21203502	          0.18842514	          0.07177481	          0.17009183	          0.16992355	          0.14592763	          0.05009722	          0.05091422	          0.05000004	          0.05000051	          0.05000170	          0.05000143	          0.51098206	          0.22252941	          0.18017060	          0.30549135	          0.47827735	          0.21129722	          0.05000005	          0.12332321	          0.10302518	          0.25724834	          0.09129986	          0.05991221	          0.25025174	          0.18671200	          0.10250546	          0.05000466	          0.05000090	          0.05000102	          0.05000066	          0.08979072	          0.09326066	          0.07438887	          0.05357960	          0.05001283	          0.05000618	          0.25941196	          0.07174022	          0.05002619	          0.05000413	          0.05000251	          0.05000277	          0.35055940	          0.54757117	          0.05000146	          0.05000918	          0.05990478	          0.23598608	          0.05000171	          0.14255142	          0.15143776	          0.24700954	          0.34338708	          0.37241003	          0.27564622	          0.22630075	          0.29308770	          0.05000006	          0.05000149	          0.06854938	          0.05000028	          0.05000007	          0.05000035	          0.05000005	          0.07313305	          0.07029609	
          1.79477944	         -2.92606821	          2.52938865	         -6.66866150	          2.24704774	          0.91236875	          0.00241253	         29.57944908	          3.77198758	         -2.33357228	        -15.82985694	         -1.89009910	          7.28693487	        -12.02425022	        -13.36098009	          4.61700233	        -10.13622562	         -4.86512566	         10.42764398	         -0.60393953	         14.05175775	          4.86215026	         16.14902873	         -1.08132947	         -0.74685313	          2.43435681	         -7.74038440	        -13.53870925	          8.23689996	          4.53526493	        -13.47710657	         17.25451688	         15.00137144	         38.37452201	         86.51662706	         86.51662706	          0.27838241	          0.05000027	          0.22276030	          0.05000063	          0.05000026	          0.25830712	          0.15958120	          0.05000249	          0.07598309	          0.05000025	          0.05000064	          0.10302490	          0.19405584	          0.19605227	          0.13028871	          0.09921338	          0.05000221	          0.05991126	          0.09941394	          0.05000132	          0.05001522	          0.09366201	          0.05990509	          0.05990482	          0.48831490	          0.17697628	          0.18235317	          0.05990725	          0.14196814	          0.14182769	          0.12179935	          0.05411000	          0.05563804	          0.05540169	          0.05000074	          0.05000191	          0.05000156	          0.42695385	          0.26608947	          0.15038057	          0.25498032	          0.52589314	          0.31408877	          0.05000002	          0.13021148	          0.08599053	          0.32198739	          0.07620398	          0.05000621	          0.20887435	          0.15584036	          0.08555684	          0.05000754	          0.05000211	          0.05000150	          0.05000036	          0.07494474	          0.11817891	          0.06209033	          0.05990580	          0.05990552	          0.05990653	          0.21652057	          0.05988320	          0.05000918	          0.05002392	          0.05008964	          0.05990454	          0.30627323	          0.53640074	          0.05163683	          0.05000323	          0.05000026	          0.19696714	          0.15055108	          0.11898432	          0.12639987	          0.20616786	          0.28660992	          0.31083405	          0.23006968	          0.18888337	          0.24462743	          0.05000014	          0.05000033	          0.10075989	          0.05000038	          0.05000047	          0.05000050	          0.05163515	          0.06104091	          0.06420899	
          1.80666540	         -2.92019944	          2.63094955	         -6.88037167	          2.26566746	          0.91135593	          0.00216139	         28.76148555	          4.05319168	         -2.08228225	        -15.71924960	         -2.23401225	          7.07186857	        -12.55997700	        -15.26987110	          3.93450433	        -10.74424706	         -5.30928551	         11.54199202	         -1.29684235	         12.32007324	          4.87893325	         18.33954829	         -0.84198318	         -0.98171730	          2.49778347	         -8.80596491	        -13.54050416	          8.18948957	          4.09428341	        -13.49215675	         17.47548046	         14.71588817	         39.65680904	         86.51662706	         86.51662706	          0.31658674	          0.28734699	          0.35939678	          0.15611507	          0.23184053	          0.21559896	          0.13319535	          0.08572641	          0.06341993	          0.08599050	          0.05034736	          0.08599035	          0.16196982	          0.16363632	          0.10874655	          0.12642734	          0.05000086	          0.05000589	          0.08297745	          0.20645475	          0.15692416	          0.11602475	          0.05000024	          0.05000021	          0.40757482	          0.14771453	          0.15223503	          0.05000195	          0.11849461	          0.11837740	          0.10166060	          0.05000010	          0.05000022	          0.05000002	          0.05000011	          0.05000031	          0.05000039	          0.54878207	          0.33122409	          0.17549481	          0.58434287	          0.53629374	          0.26215621	          0.07091583	          0.10931553	          0.07177247	          0.30421745	          0.06360413	          0.05000018	          0.36459269	          0.13007327	          0.07141064	          0.05000383	          0.05000035	          0.05000031	          0.05000082	          0.07344028	          0.10191239	          0.05182427	          0.05000120	          0.05000199	          0.05000197	          0.22700596	          0.05002400	          0.05000103	          0.05000236	          0.05000129	          0.05000089	          0.27827597	          0.51185121	          0.05000016	          0.05000114	          0.05000107	          0.17818812	          0.12566061	          0.09931219	          0.15536527	          0.17207912	          0.23922055	          0.25943932	          0.19202894	          0.15765267	          0.20417973	          0.07763047	          0.12616025	          0.11251890	          0.05000079	          0.12079305	          0.05000268	          0.06837187	          0.05094814	          0.05359241	
          1.81855136	         -2.91247578	          2.71494432	         -7.04950968	          2.28424516	          0.91050154	          0.00187081	         27.97984448	          4.32674037	         -1.84510628	        -15.51950736	         -2.55385104	          6.86955311	        -13.14563585	        -17.25425531	          3.18448201	        -11.40157169	         -5.76315010	         12.58940695	         -1.97134356	         10.24540828	          4.85514180	         20.57701086	         -0.61803984	         -1.20706179	          2.55223820	         -9.81189497	        -13.53630651	          8.19695539	          3.63502222	        -13.51399278	         17.66413498	         14.42973231	         40.86107498	         86.51662706	         86.51662706	          0.40242562	          0.38307263	          0.47817087	          0.22535212	          0.19350867	          0.32499988	          0.11117232	          0.08189778	          0.07117892	          0.07177253	          0.05000072	          0.07177254	          0.13519022	          0.18255096	          0.19180961	          0.15929047	          0.05000058	          0.05989511	          0.08898836	          0.26079308	          0.20091497	          0.16843033	          0.05000041	          0.05000032	          0.34018466	          0.12329104	          0.25440487	          0.05000014	          0.19209331	          0.19450848	          0.16577210	          0.05000010	          0.05000022	          0.05000004	          0.05000011	          0.05000123	          0.05000075	          0.64037922	          0.27645804	          0.14647773	          0.48777522	          0.57634312	          0.36323331	          0.08832485	          0.09124084	          0.05990530	          0.28486492	          0.05308762	          0.05000015	          0.30430978	          0.10856656	          0.05960345	          0.05000342	          0.05000044	          0.05000038	          0.05000036	          0.06129810	          0.15958936	          0.07783804	          0.05000553	          0.05000573	          0.05000224	          0.18947344	          0.07179165	          0.05000169	          0.05000352	          0.05000218	          0.05000124	          0.23226478	          0.47918378	          0.05000031	          0.05000099	          0.05000021	          0.14872573	          0.14128157	          0.13922570	          0.12967693	          0.14362677	          0.19966674	          0.21654243	          0.16027803	          0.13158579	          0.17041982	          0.15401844	          0.14002749	          0.11447327	          0.09041932	          0.19111757	          0.12724466	          0.08935631	          0.05000003	          0.05000008	
